<?xml version="1.0" encoding="utf-8"?>
<!-- Generator: Adobe Illustrator 26.0.0, SVG Export Plug-In . SVG Version: 6.00 Build 0)  -->
<svg version="1.1" id="Layer_1" xmlns="http://www.w3.org/2000/svg" xmlns:xlink="http://www.w3.org/1999/xlink" x="0px" y="0px"
	 viewBox="0 0 640 640" style="enable-background:new 0 0 640 640;" xml:space="preserve">
<style type="text/css">
	.st0{fill:#FFFFFF;}
</style>
<path class="st0" d="M528,368c17.7,0,32-14.3,32-32s-14.3-32-32-32H320c-8.8,0-16-7.2-16-16s7.2-16,16-16h176c17.7,0,32-14.3,32-32
	s-14.3-32-32-32H224c-1.5,0-3.1,0-4.6,0.1l57.6-60.5c15.2-16,14.6-41.3-1.4-56.6s-41.3-14.6-56.6,1.4L112,204.8
	c-41.1,43.1-64,100.4-64,160V384c0,97.2,78.8,176,176,176h208c17.7,0,32-14.3,32-32c0-17.7-14.3-32-32-32H320c-8.8,0-16-7.2-16-16
	s7.2-16,16-16h176c17.7,0,32-14.3,32-32s-14.3-32-32-32H320c-8.8,0-16-7.2-16-16s7.2-16,16-16H528z"/>
</svg>
