<?xml version="1.0" encoding="utf-8"?>
<!-- Generator: Adobe Illustrator 26.0.0, SVG Export Plug-In . SVG Version: 6.00 Build 0)  -->
<svg version="1.1" id="Layer_1" xmlns="http://www.w3.org/2000/svg" xmlns:xlink="http://www.w3.org/1999/xlink" x="0px" y="0px"
	 viewBox="0 0 640 640" style="enable-background:new 0 0 640 640;" xml:space="preserve">
<style type="text/css">
	.st0{fill:#FFFFFF;}
</style>
<path class="st0" d="M306.5,272l209.4-65.8c21.1-6.7,32.8-29.1,26.2-50.2c-6.6-21.1-29-32.8-50.2-26.1l-204,64.1v-0.1l-67.1,21.4
	c-8.4,2.7-17.4-2-20.1-10.4c-2.7-8.4,2-17.4,10.4-20.1l74.5-23.7c-6.3-19.2-24.3-33.1-45.6-33.1h-45.8c-32.2,0-63,12.8-85.8,35.6
	C80,192.1,64,230.7,64,270.9V384c0,70.7,57.3,128,128,128h96c26.5,0,48-21.5,48-48c0-12.3-4.6-23.6-12.3-32.1
	C348.5,430,368,409.3,368,384c0-12.3-4.6-23.5-12.2-32H536c22.1,0,40-17.9,40-40s-17.9-40-40-40H306.5z"/>
</svg>
