<?xml version="1.0" encoding="utf-8"?>
<!-- Generator: Adobe Illustrator 26.0.0, SVG Export Plug-In . SVG Version: 6.00 Build 0)  -->
<svg version="1.1" id="Layer_1" xmlns="http://www.w3.org/2000/svg" xmlns:xlink="http://www.w3.org/1999/xlink" x="0px" y="0px"
	 viewBox="0 0 640 640" style="enable-background:new 0 0 640 640;" xml:space="preserve">
<style type="text/css">
	.st0{fill:#FFFFFF;}
</style>
<path class="st0" d="M322.4,135.4c7.7-4.8,16.5-7.4,25.6-7.4h36c26.5,0,48,21.5,48,48v16h80c26.5,0,48,21.5,48,48
	c0,17.3-9.1,32.4-22.8,40.9c22.1,4.3,38.8,23.8,38.8,47.1c0,23.4-16.8,42.9-38.9,47.1c4.4,7.3,6.9,15.8,6.9,24.9
	c0,22.1-15,40.8-35.4,46.3c2.2,5.5,3.4,11.4,3.4,17.7c0,26.5-21.5,48-48,48h-96.9c-9.9,0-19.7-2.3-28.6-6.8l-79.1-39.6
	c-21.7-10.8-35.4-33-35.4-57.2V224c0-16.5,8.4-31.8,22.4-40.6L322.4,135.4z M96,160h48c17.7,0,32,14.3,32,32v256
	c0,17.7-14.3,32-32,32H96c-17.7,0-32-14.3-32-32V192C64,174.3,78.3,160,96,160z"/>
</svg>
