<?xml version="1.0" encoding="utf-8"?>
<!-- Generator: Adobe Illustrator 26.0.0, SVG Export Plug-In . SVG Version: 6.00 Build 0)  -->
<svg version="1.1" id="Layer_1" xmlns="http://www.w3.org/2000/svg" xmlns:xlink="http://www.w3.org/1999/xlink" x="0px" y="0px"
	 viewBox="0 0 640 640" style="enable-background:new 0 0 640 640;" xml:space="preserve">
<style type="text/css">
	.st0{fill:#FFEA00;}
</style>
<path class="st0" d="M393.6,183.4c14,8.8,22.4,24.1,22.4,40.6v184.4c0,24.2-13.7,46.4-35.4,57.2l-79.1,39.6
	c-8.9,4.5-18.7,6.8-28.6,6.8H176c-26.5,0-48-21.5-48-48c0-6.3,1.2-12.2,3.4-17.7C111,440.8,96,422.1,96,400c0-9.1,2.5-17.6,6.9-24.9
	C80.8,370.9,64,351.4,64,328c0-23.3,16.7-42.8,38.8-47.1C89.1,272.4,80,257.3,80,240c0-26.5,21.5-48,48-48h80v-16
	c0-26.5,21.5-48,48-48h36c9.1,0,17.9,2.6,25.6,7.4L393.6,183.4z M576,192v256c0,17.7-14.3,32-32,32h-48c-17.7,0-32-14.3-32-32V192
	c0-17.7,14.3-32,32-32h48C561.7,160,576,174.3,576,192z"/>
</svg>
