<?xml version="1.0" encoding="utf-8"?>
<!-- Generator: Adobe Illustrator 26.0.0, SVG Export Plug-In . SVG Version: 6.00 Build 0)  -->
<svg version="1.1" id="Layer_1" xmlns="http://www.w3.org/2000/svg" xmlns:xlink="http://www.w3.org/1999/xlink" x="0px" y="0px"
	 viewBox="0 0 640 640" style="enable-background:new 0 0 640 640;" xml:space="preserve">
<style type="text/css">
	.st0{fill:#FFEA00;}
</style>
<path class="st0" d="M288,368c8.8,0,16,7.2,16,16s-7.2,16-16,16H112c-17.7,0-32,14.3-32,32s14.3,32,32,32h176c8.8,0,16,7.2,16,16
	s-7.2,16-16,16H176c-17.7,0-32,14.3-32,32c0,17.7,14.3,32,32,32h208c97.2,0,176-78.8,176-176v-19.2c0-59.6-22.9-116.9-64-160
	L389,92.4c-15.3-16-40.6-16.7-56.6-1.4s-16.6,40.6-1.4,56.6l57.6,60.5c-1.5-0.1-3.1-0.1-4.6-0.1H112c-17.7,0-32,14.3-32,32
	s14.3,32,32,32h176c8.8,0,16,7.2,16,16s-7.2,16-16,16H80c-17.7,0-32,14.3-32,32s14.3,32,32,32H288z"/>
</svg>
